# xmcd
#
# Track frame offsets:
#	150
#	13720
#	26857
#	42534
#	59310
#	71231
#	88454
#	104391
#	117305
#	131409
#	144710
#	157409
#	171489
#	185199
#	199181
#	211450
#	227981
#	242152
#	253707
#	264876
#	278018
#	290224
#	303657
#	319003
#	335973
#
# Disc length: 4681 seconds
#
# Revision: 0
# Processed by: cddbd v1.5.2PL0 Copyright (c) Steve Scherf et al.
# Submitted via: dBpowerAMP V4.0
#
DISCID=a4124719
DTITLE=Eartha Kitt - She's So Good
DYEAR=2006
DGENRE=Blues
TTITLE0=C'est Si Bon
TTITLE1=Avril Au Portugal
TTITLE2=Angelitos Negros
TTITLE3=Lilac Wine
TTITLE4=Mountain High,Valley Low
TTITLE5=Monotonous
TTITLE6=I Want To Be Evil
TTITLE7=African Lullaby
TTITLE8=Uska Dara
TTITLE9=Lovin' Spree
TTITLE10=Somebody Bad Stole De Weddin' Bell
TTITLE11=Let's Do It, Let's Fall In Love
TTITLE12=Senor
TTITLE13=My Heart Belongs To Daddy
TTITLE14=Under The Bridges Of Paris
TTITLE15=The Blues
TTITLE16=Smoke Gets In Your Eyes
TTITLE17=If I Love YaThen I Need Ya,If I Need Ya Then I Wantcha Around
TTITLE18=Strangers In The Starlight
TTITLE19=Apres-Moi
TTITLE20=Hey, Jacque!
TTITLE21=Mambo De Paree
TTITLE22=The Day That The Circus Left Town
TTITLE23=Tea In Chicago
TTITLE24=Santa Baby
EXTD=Living Era Label\nMono Recordings from 1952-1955
EXTT0=
EXTT1=
EXTT2=
EXTT3=
EXTT4=
EXTT5=
EXTT6=
EXTT7=
EXTT8=
EXTT9=
EXTT10=
EXTT11=
EXTT12=
EXTT13=
EXTT14=
EXTT15=
EXTT16=
EXTT17=
EXTT18=
EXTT19=
EXTT20=
EXTT21=
EXTT22=
EXTT23=
EXTT24=
PLAYORDER=
